<svg width="25" height="24" viewBox="0 0 25 24" fill="none" xmlns="http://www.w3.org/2000/svg">
<g clip-path="url(#clip0_7_2)">
<path d="M14.4171 5.669L18.921 10.17L10.7711 18.32L6.27005 13.816L14.4171 5.669ZM11.4111 19.613L20.2111 10.813C20.2965 10.7298 20.3644 10.6303 20.4109 10.5204C20.4573 10.4105 20.4812 10.2925 20.4813 10.1732C20.4814 10.0539 20.4577 9.93584 20.4114 9.82588C20.3652 9.71593 20.2974 9.61635 20.212 9.533L15.0561 4.377C14.8836 4.21234 14.6543 4.12055 14.4159 4.12074C14.1774 4.12092 13.9482 4.21307 13.7761 4.378L4.97605 13.178C4.89059 13.2612 4.82266 13.3607 4.77624 13.4706C4.72981 13.5805 4.70585 13.6985 4.70576 13.8178C4.70567 13.9371 4.72944 14.0552 4.77569 14.1651C4.82194 14.2751 4.88972 14.3746 4.97505 14.458L10.1311 19.614C10.3035 19.7787 10.5328 19.8705 10.7713 19.8703C11.0097 19.8701 11.2389 19.7779 11.4111 19.613V19.613ZM24.0741 10.54L11.1561 23.473C10.8241 23.799 10.3691 24 9.86705 24C9.36505 24 8.91005 23.799 8.57805 23.473L6.78405 21.68C7.28498 21.1635 7.56265 20.4707 7.55711 19.7513C7.55156 19.0318 7.26324 18.3433 6.75441 17.8346C6.24558 17.326 5.55708 17.0378 4.8376 17.0324C4.11812 17.0271 3.4254 17.3049 2.90905 17.806L2.91005 17.805L1.12905 16.011C0.803051 15.679 0.602051 15.224 0.602051 14.722C0.602051 14.22 0.803051 13.765 1.12905 13.433L14.0481 0.527C14.3801 0.201 14.8351 0 15.3371 0C15.8391 0 16.294 0.201 16.626 0.527L18.407 2.308C18.1434 2.56027 17.9328 2.86267 17.7875 3.19745C17.6423 3.53223 17.5655 3.89264 17.5614 4.25753C17.5574 4.62242 17.6263 4.98445 17.7641 5.32235C17.9019 5.66025 18.1058 5.96723 18.3638 6.22526C18.6218 6.4833 18.9288 6.68719 19.2667 6.82497C19.6046 6.96275 19.9666 7.03165 20.3315 7.02762C20.6964 7.02359 21.0568 6.94672 21.3916 6.8015C21.7264 6.65629 22.0288 6.44567 22.281 6.182L22.282 6.181L24.076 7.962C24.402 8.294 24.6031 8.749 24.6031 9.251C24.6031 9.753 24.402 10.208 24.076 10.54H24.0741Z" fill="white"/>
</g>
<defs>
<clipPath id="clip0_7_2">
<rect width="24" height="24" fill="white" transform="translate(0.600098)"/>
</clipPath>
</defs>
</svg>
